<svg xmlns="http://www.w3.org/2000/svg" width="112.864" height="138.108" viewBox="0 0 112.864 138.108">
  <g id="Onion" transform="translate(-712 -705)">
    <path id="Path_1" data-name="Path 1" d="M98.512,9.79h0c.855,2.144.438,6.825-1.065,9.954Q97.976,14.767,98.512,9.79Zm-2.374-2.7h0c1.235,5.457.3,10.751-.393,16.194-1.8-.536-1.978-2.053-3.174-2.808a13.506,13.506,0,0,1,.971-1.323,3.1,3.1,0,0,0,.722-3.687,1.6,1.6,0,0,1,.555-2.258c.972-.589.95-1.607.922-2.626a8.933,8.933,0,0,1-.312-2.468C95.405,7.832,95.775,7.462,96.139,7.091Zm9.467,40.269a11.711,11.711,0,0,1,.578,1.218c-.674-.624-1.415-1.358-2.395-2.244C104.9,46.669,105.253,46.776,105.606,47.359Zm-6.531-9.452a4.5,4.5,0,0,1,.351.726c.463,1.5.923,2.988,1.515,4.7a6.166,6.166,0,0,1-4.061-1.09c1.424-2.044-.208-4.01-.566-6.3A4.555,4.555,0,0,1,99.075,37.908ZM88.251-27.876q1.209,2,2.329,4.06A56.16,56.16,0,0,1,95.373-11.5,32.071,32.071,0,0,1,96.53-4.226c.1,3.341-.083,6.7-.156,9.992-1.689.876-1.689.876-2.307,3.761C93.082,6.43,92.115,3.619,91.152.8c-1.119-3.313-2.239-6.625-3.463-9.87a39.473,39.473,0,0,0-3.206-6.46c-1.236-2.042-2.6-3.988-3.972-5.89A74.024,74.024,0,0,0,65.928-36.963,39.79,39.79,0,0,0,45.2-45.832c-.694-.173-1.324-.235-2.016-.4.107-.065.04-.175.086-.349a51.379,51.379,0,0,1,12.166,1.794h0c-1.35-1.251-4.91-2.493-7.422-2.744-2.169-.166-4.338-.333-6.55-.322a23.136,23.136,0,0,1-11.2-3.857,3.531,3.531,0,0,1,.8.1,11.426,11.426,0,0,0,7.5-.548c9.132-3.459,17.872-1.956,26.319,2.24a54.407,54.407,0,0,1,16.365,12.4A64.844,64.844,0,0,1,88.251-27.876ZM92,44.907h0c1.834,3.761.46,7.843,1.5,12.239-.781-.559-1.191-.754-1.387-1.078a7.441,7.441,0,0,1-.43-.63,7.7,7.7,0,0,1-.68-6.085C91.271,47.857,91.609,46.469,92,44.907ZM39.234-46.656a19.5,19.5,0,0,1-2.451-.142,20.627,20.627,0,0,1-10.329-3.646,3.315,3.315,0,0,1-.918-.91c-.394-.651-.247-1.374.472-2.513C29.512-49.783,34.436-48.481,39.234-46.656ZM13.83-53l-.41.545c-.741-.734-1.479-1.47-2.391-2.246l.366-.368A28.43,28.43,0,0,0,13.83-53Zm69.642,37.4q1.189,1.964,2.258,4.023a84.867,84.867,0,0,1,3.591,9.35c1.576,4.068,3.046,8.2,4.619,12.27l.592,1.71A15.883,15.883,0,0,1,92.5,14.021c-1.116-2.575-2.207-4.868-3.151-7.4-1.925-4.893-3.808-9.957-6.557-14.5-.436-.764-.88-1.527-1.339-2.285a42.44,42.44,0,0,0-7.006-9.058,12.009,12.009,0,0,0-1.631-1.231,57.1,57.1,0,0,1,6.265,8.727c.926,1.53,1.814,3.078,2.695,4.613A118.536,118.536,0,0,1,88.708,7.749a41.806,41.806,0,0,0,2.952,6.34,5.122,5.122,0,0,0,.285.536c.463.765,1.171,1.576,1.894,2.573-.475.438-.927,1.154-1.445,1.761-.927,1.154-1.012,1.5-.4,2.754A13.886,13.886,0,0,0,93.278,23.6,20.456,20.456,0,0,0,95,25.213a17.1,17.1,0,0,0-2.118,6.751,13.711,13.711,0,0,1-2.052-2.681c-.467-.771-.887-1.575-1.307-2.379-2.054-4.367-4.389-8.716-6.162-13.107A146.551,146.551,0,0,0,76.954.533c-.356-.706-.74-1.39-1.142-2.055a33.857,33.857,0,0,0-8.634-9.459,1.667,1.667,0,0,0-.93-.323c1.347,1.253,2.416,2.528,3.763,3.781A32.932,32.932,0,0,1,75.622-.415c.585.966,1.136,1.957,1.666,2.964,3.626,6.964,6.753,14.083,9.944,21.309A41.6,41.6,0,0,0,89.9,29.339a18.993,18.993,0,0,0,2.527,3.342,1.11,1.11,0,0,1,.215.26,2.58,2.58,0,0,1,.264.779c.112,1.407.054,2.775.126,4.357-.456-.021-.8-.107-1.26-.128a4.006,4.006,0,0,0-4.478,2.121,2.276,2.276,0,0,1-2.2,1.48,5.962,5.962,0,0,0-1.408.117,4.944,4.944,0,0,1-3.858-.03,1.706,1.706,0,0,0-.456-.021c-1.386.4-2.6.834-3.875,1.163-1.45.289-2.8.51-4.071.839,1.065.538,2.148.622,4.378.158a23.96,23.96,0,0,1,4.637-.885,6.428,6.428,0,0,1-1.17,1c-2.395,1.9-4.795,3.792-7.323,5.469a14.391,14.391,0,0,1-8.77,2.354C53.028,51.8,43.462,49.168,34.32,44.8A49.385,49.385,0,0,1,13.64,26.742q-.941-1.489-1.847-2.978A68.916,68.916,0,0,1,4.859,9.308,39.839,39.839,0,0,1,3.14-4.274C3.551-9.7,4.309-15.03,6.807-19.939a40.919,40.919,0,0,0,1.8-4.341,15.592,15.592,0,0,1,1.766-3.434c2.716-3.561,2.639-7.354.91-11.184-.634-1.538-1.07-2.749.33-4.336,1.186-1.457,2.137-2.33,3.936-2.533A5.633,5.633,0,0,0,16.5-45.9c1.764,2.183,3.271,4.672,5.726,6.286-1.079-1.783-2.526-3.347-3.605-5.129a11.763,11.763,0,0,1-.932-1.876c.932-.414,1.26.128,1.759.711,1,1.165,1.939,2.223,3.048,3.323a1.585,1.585,0,0,0,1.41.625q-.326-.912-.659-1.82c-.918-2.248-.874-2.425,1.158-3.947.217-.131.475-.438.906-.7a5.466,5.466,0,0,1,.937,1.058c2.33,2.876,5,5.1,8.8,5.753.976.149,1.909.47,2.885.618h0c-4.295-1.652-8.625-3.158-11.128-7.294-.192-.318-.374-.655-.542-1.005a5.157,5.157,0,0,1,1.127.647,19.815,19.815,0,0,0,8.594,3.217c2.8.228,5.66.564,8.347.855A41.3,41.3,0,0,1,67.7-34.043,77.176,77.176,0,0,1,83.471-15.595Zm5.012-15.447A55.242,55.242,0,0,0,73.126-47.525c-7.039-5.044-14.641-8.569-23.462-8.992a28.8,28.8,0,0,0-9.554,1.058c-1,.307-2.1.678-3.1.988a9.209,9.209,0,0,1-8.108-.708,3.915,3.915,0,0,0-4.511-.37c-2.192-1.184-3.546-3.173-5.156-4.86q-4.769-5.311-9.534-10.623c-.606-.519-.958-1.342-2.172-.9a2.874,2.874,0,0,0,.331,1.279,26.945,26.945,0,0,0,1.918,2.679c2.726,3.523,5.446,7.044,8.279,10.5a.433.433,0,0,0,.019.281l-.692-.17-.648.392c1.027,2.186,2.163,4.306,3.295,6.424-1.622.247-1.622.247-2.449-.878-1.526-2.03-3.053-4.064-4.362-6.226A30.027,30.027,0,0,0,7.455-64.5l-5.87-5.308c-.263-.434-.609-.517-1.086-.822,1.785,2.467,3.141,5.189,5.509,7.156a21.49,21.49,0,0,1,4.337,4.926c.128.211.251.429.368.645-.045.174-.152.238-.37.37l-4.113-4.6c.067.11-.04.175-.15.242q1.834,2.657,3.661,5.317c-1.556,1.088-1.556,1.088-.64,2.6.342.484.653.969.947,1.455.592.979,1.124,1.968,1.737,2.979-1,.307-1.324-.235-1.717-.883A20.678,20.678,0,0,0,8.3-52.606c-.368-.366-1.02-.711-1.344-.515-.823.352-.366,1.107-.1,1.542a2.077,2.077,0,0,0,.212.46c.175.288.4.547.572.836.546,1.144,1.2,2.227,1.747,3.376a3.652,3.652,0,0,1,.329,1.275,3.972,3.972,0,0,1-1.757-.708c-.435-.477-1.086-.822-1.606-.21a1.739,1.739,0,0,0,.117,1.408c2.048,3.632,2.887,7.7,4.184,11.794a5.946,5.946,0,0,1-.525,4.751c-1.463,2.954-2.922,5.905-4.56,8.818C2.324-13.678,1.61-7.042,1.981-.327A33.641,33.641,0,0,0,3.623,8.728a65.389,65.389,0,0,0,6.736,14.846q1.754,2.9,3.767,5.682C22.253,40.731,33.573,47.47,46.915,51.215a61.554,61.554,0,0,0,16.113,2.213,17.723,17.723,0,0,0,9.507-2.358c2.982-1.659,5.837-3.533,8.758-5.3A7.032,7.032,0,0,1,84.039,44.7a23.043,23.043,0,0,0,5.478-.951c.11-.067.349.086.456.021.681,2.1.77,2.487.276,4.115a12.009,12.009,0,0,0-.659,3.06,8.493,8.493,0,0,0,.91,4.892,5.041,5.041,0,0,0,1.54,1.6,7.883,7.883,0,0,1,2.517,2.608c.169.279.328.572.49.89.193.37.394.731.61,1.088a10.055,10.055,0,0,0,3.635,3.73c.413.193.8.1,1.212.3.045-.174.086-.349.193-.413a20.656,20.656,0,0,1-4.577-5.126,15.465,15.465,0,0,1-.909-1.744,7.591,7.591,0,0,1,7.114,1.013,36.5,36.5,0,0,0,3.542,2.435c.3.259.8.1,1.5.277a4.691,4.691,0,0,0-.365-.749c-.847-1.4-2.172-1.781-3.354-2.469a12.862,12.862,0,0,0-4.276-1.694,24.543,24.543,0,0,0-4.553-.2,11.812,11.812,0,0,1-.7-6.522c.3-2.528.981-5.177-.5-7.621a6.815,6.815,0,0,0-.7-.956c1.465-.067,2.525.243,3.106,1.2a2.175,2.175,0,0,1,.126.238,23.469,23.469,0,0,1,1.662,3.719c.482,1.037.681,2.1,1.16,3.138a11.822,11.822,0,0,0,.634,1.193c1.96,3.238,5.127,4.864,8.63,6.056.236.149.454.018.844-.068a1.033,1.033,0,0,0-.118-.721c-.241-.4-.753-.563-1.082-.771a47.172,47.172,0,0,1-4.733-3.189,9.608,9.608,0,0,1-2.469-2.748,16.841,16.841,0,0,1-1.968-5.8c1.389.342,2.735.121,3.691,1.459a56.417,56.417,0,0,0,5.506,5.68,4.072,4.072,0,0,0,3.2,1.613,8.353,8.353,0,0,0-.506-1.319c-.674-1.363-1.461-2.663-2.246-3.959-.09-.163-.179-.325-.275-.484a7.774,7.774,0,0,0-4.7-3.592,2.8,2.8,0,0,1-1.261-.862c-.5-1.321-.963-2.814-1.6-4.35a19.035,19.035,0,0,0,3.712,1,10.412,10.412,0,0,1,7.925,4.065,5.334,5.334,0,0,0,1.218,1.039,5.5,5.5,0,0,0-.751-2.9,6.432,6.432,0,0,0-1.605-1.73,8.182,8.182,0,0,0-5.493-1.994,7.941,7.941,0,0,1-5.12-1.626c-1.393-1.079-2.782-2.16-4.239-3.346.019-1.19.034-2.381.161-3.64q.316-1.3.638-2.6a12.713,12.713,0,0,0,.361-2.579,10.693,10.693,0,0,1,.487-2.363A49.074,49.074,0,0,0,100.012,10.8,4.589,4.589,0,0,0,99.6,7.957a2.735,2.735,0,0,0-.494-.6,4.175,4.175,0,0,1-.645-.81,6.414,6.414,0,0,1-.735-2.934c-.072-1.582-.208-3.271-.28-4.852C97.2-3.6,97.173-6.09,96.816-8.385A67.806,67.806,0,0,0,88.483-31.041Z" transform="translate(711.501 777.06)" fill="#fff" fill-rule="evenodd"/>
    <path id="Path_2" data-name="Path 2" d="M61.725-9.945h0A133.815,133.815,0,0,1,48.242-10.5a9.535,9.535,0,0,0-1.755.026A31.562,31.562,0,0,1,31.5-13.513c-2.3-1.118-4.558-2.409-6.86-3.527-.415-.2-.8-.107-1.217-.3,3.325,1.827,6.431,3.791,9.8,5.447A29.389,29.389,0,0,0,44.042-9.14c4.66.133,9.365.093,14.025.227.107-.065.389-.089.5-.154A28.966,28.966,0,0,0,61.725-9.945Z" transform="translate(732.694 827.654)" fill="#fff" fill-rule="evenodd"/>
    <path id="Path_3" data-name="Path 3" d="M79.5,19.211h0a9.894,9.894,0,0,1-1.8-1.274,71.308,71.308,0,0,1-6.215-4.657A52.163,52.163,0,0,1,63.2,2.778c-2.987-4.693-5.91-9.274-8.83-13.857a55.341,55.341,0,0,0-7.9-9.4A139.078,139.078,0,0,1,32.624-36.027a68.235,68.235,0,0,0-7.333-7.235c-3.414-2.955-7.045-5.78-10.566-8.67-.545-.41-1.261-.862-1.871-1.379a49.306,49.306,0,0,0,5.634,5.159,98.968,98.968,0,0,1,14.42,13.574c3.941,4.558,7.841,9.288,12,13.717A86.8,86.8,0,0,1,55.01-8.069c2.356,3.893,4.645,7.675,7.219,11.436A59.359,59.359,0,0,0,72.874,15.833,13.37,13.37,0,0,0,79.5,19.211Z" transform="translate(722.924 794.394)" fill="#fff" fill-rule="evenodd"/>
    <path id="Path_4" data-name="Path 4" d="M57.335,13.6h0a9.521,9.521,0,0,0-2.106-.794,23.438,23.438,0,0,1-3.495-1.135A55.283,55.283,0,0,1,31.63-3.488a53.306,53.306,0,0,1-4.841-6.893c-1.458-2.408-2.8-4.88-4.191-7.29-4.756-8.348-7.518-17.309-9.462-26.623a20.225,20.225,0,0,0-2.344-6.544,13.654,13.654,0,0,0-2.331-2.885c.285.713.742,1.468,1.025,2.183.659,1.82,1.49,3.677,2.039,5.564.856,2.878,1.669,5.933,2.526,8.812a104.3,104.3,0,0,0,9.322,22.718c.848,1.5,1.707,3.01,2.611,4.5A54.4,54.4,0,0,0,31-2.812c4.9,5.9,11.094,10.273,17.74,13.93A21.521,21.521,0,0,0,57.335,13.6Z" transform="translate(718.862 794.014)" fill="#fff" fill-rule="evenodd"/>
    <path id="Path_5" data-name="Path 5" d="M8.506-46.418h0A14.033,14.033,0,0,1,6.5-39a18.464,18.464,0,0,0-1.652,4.1A38.48,38.48,0,0,0,6.053-13.615a57.283,57.283,0,0,0,5.337,11.02c.948,1.565,1.944,3.11,2.962,4.637a25.783,25.783,0,0,0,5.571,6.526L19.4,7.7A65.954,65.954,0,0,1,13.234-.983C12.253-2.6,11.323-4.25,10.42-5.918A40.214,40.214,0,0,1,4.869-23.385c-.415-5.807-.022-11.509,3.014-16.744A7.121,7.121,0,0,0,8.506-46.418Z" transform="translate(714.622 800.768)" fill="#fff" fill-rule="evenodd"/>
    <path id="Path_6" data-name="Path 6" d="M40.182-.433h0a70.727,70.727,0,0,1-12.53-11.915A89.931,89.931,0,0,1,21.795-20.9,121.687,121.687,0,0,1,13.4-37.844c-.506-1.319-1.182-2.685-1.753-4.111l-.107.065c-.042.172.024.282.046.566A102.613,102.613,0,0,0,21.4-20.133q2.166,3.578,4.6,7.012A47.161,47.161,0,0,0,38.053-1.505C38.77-1.053,39.532-.775,40.182-.433Z" transform="translate(721.698 804.894)" fill="#fff" fill-rule="evenodd"/>
    <path id="Path_7" data-name="Path 7" d="M30.946-2.808c-.634-.8-1.372-1.535-2.006-2.333-2.37-2.7-5.133-5.312-7.142-8.383q-.5-.8-.993-1.6c-2.684-4.434-5.009-9.1-7.56-13.749-.655-1.083-1.265-2.339-1.985-3.528l-.217.131c1.619,3.9,3.347,7.725,5.138,11.664-.892-1.232-1.788-2.465-2.506-3.651.614,1.241,1.34,2.55,2.152,3.892C20.144-13.236,26.829-5.294,30.946-2.808Z" transform="translate(721.25 813.723)" fill="#fff" fill-rule="evenodd"/>
    <path id="Path_8" data-name="Path 8" d="M44.554-30.131a71.233,71.233,0,0,0-6.069-8.607c.524.865,1.219,1.773,1.808,2.745,1.044,1.587,2.132,3.244,3.15,4.927.747,1.235,1.457,2.48,2.086,3.724,3.295,6.424,6.2,12.936,9.392,19.425a12.643,12.643,0,0,0,.822,1.571c.612,1.011,1.316,1.962,1.926,2.97C53.339-12.34,49.694-21.639,44.554-30.131Z" transform="translate(746.623 807.869)" fill="#fff" fill-rule="evenodd"/>
    <path id="Path_9" data-name="Path 9" d="M46.438-41.578C43.378-46.635,30.164-55.788,25.5-56.132c7.536,4.154,15.008,8.2,21.166,14.96C46.6-41.3,46.523-41.439,46.438-41.578Z" transform="translate(734.617 791.786)" fill="#fff" fill-rule="evenodd"/>
    <path id="Path_10" data-name="Path 10" d="M49.883-12.42a9.776,9.776,0,0,0-1.363-1.7A71.15,71.15,0,0,1,43.6-19.556C40.941-22.972,38.544-26.69,36-30.169,40.314-23.035,44.85-16.03,50.682-9.812A5.445,5.445,0,0,0,49.883-12.42Z" transform="translate(744.321 815.791)" fill="#fff" fill-rule="evenodd"/>
    <path id="Path_11" data-name="Path 11" d="M38.662-38.527C35.415-42.912,24.9-51.021,22.117-51.7,27.269-47.582,32.832-43.271,38.662-38.527Z" transform="translate(731.489 795.88)" fill="#fff" fill-rule="evenodd"/>
    <path id="Path_12" data-name="Path 12" d="M35.687-45.359h0a67.432,67.432,0,0,0-17.94-9.38C23.784-51.6,29.715-48.391,35.687-45.359Z" transform="translate(727.448 793.074)" fill="#fff" fill-rule="evenodd"/>
    <path id="Path_13" data-name="Path 13" d="M51.342-12.49h0a14.882,14.882,0,0,0-4.458-3.949l-.2-.324c-2.172-.9-4.45-1.74-6.555-2.533A23.415,23.415,0,0,0,33.666-20.7,48,48,0,0,1,51.342-12.49Z" transform="translate(742.167 824.545)" fill="#fff" fill-rule="evenodd"/>
    <path id="Path_14" data-name="Path 14" d="M11.741-49.953h0c.633,6.548,2.073,12.841,5.4,18.341q.544.9,1.156,1.771a103.593,103.593,0,0,1-3.961-9.719A105.019,105.019,0,0,1,11.741-49.953Z" transform="translate(721.896 797.499)" fill="#fff" fill-rule="evenodd"/>
    <path id="Path_15" data-name="Path 15" d="M7.776-50.162c1.673,6.671,2.566,13.517,4.91,20.074A178.333,178.333,0,0,0,7.776-50.162Z" transform="translate(718.229 797.306)" fill="#fff" fill-rule="evenodd"/>
    <path id="Path_16" data-name="Path 16" d="M39.788-44.585h0c-2.724-3.52-10.656-9.059-13.345-9.353C30.768-50.941,35.223-47.73,39.788-44.585Z" transform="translate(735.489 793.813)" fill="#fff" fill-rule="evenodd"/>
    <path id="Path_17" data-name="Path 17" d="M46.634-36.063a53.794,53.794,0,0,0-4.583-6.291l7.66,13.388A26.47,26.47,0,0,0,46.634-36.063Z" transform="translate(749.92 804.524)" fill="#fff" fill-rule="evenodd"/>
    <path id="Path_18" data-name="Path 18" d="M42.6-26.85a47.547,47.547,0,0,0-4.768-6.5l8.049,13.3A39.1,39.1,0,0,0,42.6-26.85Z" transform="translate(746.016 812.849)" fill="#fff" fill-rule="evenodd"/>
    <path id="Path_19" data-name="Path 19" d="M36.364-31.772c-3.85-4.166-7.813-8.269-11.772-12.374-.11.067-.15.242-.261.308C28.185-39.673,32.144-35.569,36-31.4,36.106-31.466,36.257-31.708,36.364-31.772Z" transform="translate(733.536 802.868)" fill="#fff" fill-rule="evenodd"/>
    <path id="Path_20" data-name="Path 20" d="M30.5-7.054h0c-2.39-1.512-4.888-2.954-7.126-4.7A80.7,80.7,0,0,1,17-16.909C20.856-12.739,25.118-9.115,30.5-7.054Z" transform="translate(726.761 828.052)" fill="#fff" fill-rule="evenodd"/>
    <path id="Path_21" data-name="Path 21" d="M39.24-10.362h0a9.269,9.269,0,0,0-1.451-.451A51.874,51.874,0,0,1,26.461-14.15c-.347-.082-.8-.1-1.148-.191a2.518,2.518,0,0,0,.955.6,41.31,41.31,0,0,0,11.5,3.38A6.552,6.552,0,0,0,39.24-10.362Z" transform="translate(734.444 830.426)" fill="#fff" fill-rule="evenodd"/>
    <path id="Path_22" data-name="Path 22" d="M45.439-31.345a44.574,44.574,0,0,0-3.851-5.433C44.1-32.389,47-27.353,49.73-22.353A50.992,50.992,0,0,0,45.439-31.345Z" transform="translate(749.492 809.681)" fill="#fff" fill-rule="evenodd"/>
    <path id="Path_23" data-name="Path 23" d="M8.967-51.112q-.689-1.138-1.508-2.236c1.426,3.57,2.848,7.142,4.4,10.928A19.423,19.423,0,0,0,8.967-51.112Z" transform="translate(717.936 794.36)" fill="#fff" fill-rule="evenodd"/>
    <path id="Path_24" data-name="Path 24" d="M45.967-15.939A33.335,33.335,0,0,0,36.04-21.6,21.932,21.932,0,0,0,38.8-19.726c1.913,1.207,3.78,2.588,5.693,3.795l.2.324A5.147,5.147,0,0,0,45.967-15.939Z" transform="translate(744.362 823.715)" fill="#fff" fill-rule="evenodd"/>
    <path id="Path_25" data-name="Path 25" d="M28.145-9.651h0a4.336,4.336,0,0,0-.848-.669,53.946,53.946,0,0,1-11-9.884c-.129-.214-.585-.235-.891-.492C20.106-15.126,24.867-10.918,28.145-9.651Z" transform="translate(725.279 824.549)" fill="#fff" fill-rule="evenodd"/>
    <path id="Path_26" data-name="Path 26" d="M7.408-44.635A34.181,34.181,0,0,0,3.163-32.611a.687.687,0,0,0,.126.45h0a1.448,1.448,0,0,0,.373-.606c.985-3.253,2.075-6.574,3.059-9.827C6.895-43.288,7.24-43.94,7.408-44.635ZM3.289-32.16c-.028.035-.054.072-.083.112L3.384-32Z" transform="translate(713.957 802.416)" fill="#fff" fill-rule="evenodd"/>
    <path id="Path_27" data-name="Path 27" d="M30.955-48.51h0a23.144,23.144,0,0,0-7.65-4.825,1,1,0,0,0-.6-.123h0c1.987,1.131,3.937,2.422,5.925,3.548C29.346-49.457,30.237-48.965,30.955-48.51ZM22.7-53.457h0c-.032-.016-.061-.034-.092-.05l-.107.065C22.569-53.446,22.637-53.452,22.7-53.457Z" transform="translate(731.847 794.212)" fill="#fff" fill-rule="evenodd"/>
    <path id="Path_28" data-name="Path 28" d="M43.57-14.868h0c-2.887-1.353-6.51-1.968-8.244-1.658C38.386-15.866,40.923-15.334,43.57-14.868Z" transform="translate(743.702 828.333)" fill="#fff" fill-rule="evenodd"/>
    <path id="Path_29" data-name="Path 29" d="M41.61-24.579c-1.412-2.334-2.946-4.51-4.411-6.732a2.792,2.792,0,0,0-.759-.28q3.074,4.344,6.145,8.689C42.267-23.471,41.943-24.028,41.61-24.579Z" transform="translate(744.732 814.477)" fill="#fff" fill-rule="evenodd"/>
    <path id="Path_30" data-name="Path 30" d="M7.387-42.233h0a14.869,14.869,0,0,0,1.461,8.274C8.4-36.644,7.851-39.263,7.387-42.233Z" transform="translate(717.812 804.637)" fill="#fff" fill-rule="evenodd"/>
    <path id="Path_31" data-name="Path 31" d="M21.127-40c-.895-1.23-1.853-2.572-2.745-3.8l-2.421-4-.327.2,5.169,7.8Z" transform="translate(725.495 799.484)" fill="#fff" fill-rule="evenodd"/>
    <path id="Path_32" data-name="Path 32" d="M20.573-18.6c-1.026-1.447-1.983-2.786-2.941-4.128-.342-.484-.653-.969-.945-1.452-.587-.969-1.1-1.935-1.672-2.872l-.324.2c1.872,2.852,3.682,5.6,5.558,8.451Z" transform="translate(724.623 818.678)" fill="#fff" fill-rule="evenodd"/>
    <path id="Path_33" data-name="Path 33" d="M40.869-10.106c-2.747,1.074-5.065,1.883-7.876,2.85A14.621,14.621,0,0,0,40.869-10.106Z" transform="translate(741.545 834.342)" fill="#fff" fill-rule="evenodd"/>
    <path id="Path_34" data-name="Path 34" d="M3.085-33.624a.475.475,0,0,1-.392.091c.639,2.27,1.17,4.611,1.741,6.776.172.042.279-.023.456.021C4.358-29.076,3.723-31.348,3.085-33.624Z" transform="translate(713.529 812.597)" fill="#fff" fill-rule="evenodd"/>
    <path id="Path_35" data-name="Path 35" d="M40.3-28.494a12.943,12.943,0,0,0-2.689-3.191c1.286,1.883,2.635,3.87,3.989,5.858A17.185,17.185,0,0,0,40.3-28.494Z" transform="translate(745.815 814.389)" fill="#fff" fill-rule="evenodd"/>
    <path id="Path_36" data-name="Path 36" d="M14.721-46.258,14.29-46c1.027,2.186,1.988,4.266,3.016,6.447l.214-.129C16.667-41.821,15.64-44.007,14.721-46.258Z" transform="translate(724.251 800.916)" fill="#fff" fill-rule="evenodd"/>
    <path id="Path_37" data-name="Path 37" d="M12.2-51.546,8.712-56.821l-.431.261c1.219,1.773,2.439,3.546,3.6,5.21Z" transform="translate(718.696 791.149)" fill="#fff" fill-rule="evenodd"/>
    <path id="Path_38" data-name="Path 38" d="M33.23-10.679c-1.738-.427-3.406-.746-5.141-1.17L28-11.506q2.6.644,5.2,1.283Z" transform="translate(736.932 832.729)" fill="#fff" fill-rule="evenodd"/>
    <path id="Path_39" data-name="Path 39" d="M21.644-10.327c-1.261-.862-2.477-1.9-3.8-2.87-.107.065-.15.242-.257.306,1.326.969,2.542,2,3.8,2.866Z" transform="translate(727.296 831.484)" fill="#fff" fill-rule="evenodd"/>
    <path id="Path_40" data-name="Path 40" d="M42.278-29.379a31.969,31.969,0,0,1-2.44-2.81q1.148,1.524,2.288,3.048Z" transform="translate(747.874 813.924)" fill="#fff" fill-rule="evenodd"/>
    <path id="Path_41" data-name="Path 41" d="M19.512-45.079a3.029,3.029,0,0,0-1.9-1.519c.8.846,1.675,1.794,2.48,2.635C19.908-44.344,19.726-44.725,19.512-45.079Z" transform="translate(727.322 800.602)" fill="#fff" fill-rule="evenodd"/>
    <path id="Path_42" data-name="Path 42" d="M23.677-10.761a14.413,14.413,0,0,1-2.323-1.4.124.124,0,0,1-.04.175,19.013,19.013,0,0,0,2.1,1.53A.471.471,0,0,1,23.677-10.761Z" transform="translate(730.747 832.439)" fill="#fff" fill-rule="evenodd"/>
    <path id="Path_43" data-name="Path 43" d="M25.445-12.865a1.621,1.621,0,0,1-.175.026h0a.611.611,0,0,0,.068.039Zm-.175.026c-.867-.489-1.7-1.14-2.626-1.727C23.52-13.821,23.956-12.676,25.27-12.839Z" transform="translate(731.976 830.218)" fill="#fff" fill-rule="evenodd"/>
    <path id="Path_44" data-name="Path 44" d="M23.918-17.526c-.1-.044-.21-.09-.318-.131h0a2.54,2.54,0,0,0,.385.241Zm-.318-.131c-.824-.608-1.356-1.589-2.528-1.4.48.3,1.025.713,1.5,1.014C22.885-17.893,23.256-17.785,23.6-17.656Z" transform="translate(730.522 826.046)" fill="#fff" fill-rule="evenodd"/>
    <path id="Path_45" data-name="Path 45" d="M26.555-13.617h0a16.224,16.224,0,0,0-2.391-1.507c-.107.065-.15.242-.193.413C24.795-14.323,25.728-14,26.555-13.617Z" transform="translate(733.203 829.702)" fill="#fff" fill-rule="evenodd"/>
    <path id="Path_46" data-name="Path 46" d="M20.955-19.937c-.716-.452-1.258-.864-1.974-1.316C19.587-20.735,19.786-19.673,20.955-19.937Z" transform="translate(728.589 824.035)" fill="#fff" fill-rule="evenodd"/>
    <path id="Path_47" data-name="Path 47" d="M7.79-44.677A2.748,2.748,0,0,0,8.1-42.208,13.146,13.146,0,0,1,7.79-44.677Z" transform="translate(718.105 802.378)" fill="#fff" fill-rule="evenodd"/>
    <path id="Path_48" data-name="Path 48" d="M11.511-30.131l-.11.067,1.046,1.728.11-.067Z" transform="translate(721.581 815.826)" fill="#fff" fill-rule="evenodd"/>
    <path id="Path_49" data-name="Path 49" d="M22.079-17.674a31.333,31.333,0,0,1-2.049-2.9h0a31.333,31.333,0,0,0,2.049,2.9Z" transform="translate(729.515 824.667)" fill="#fff" fill-rule="evenodd"/>
    <path id="Path_50" data-name="Path 50" d="M34.547-12.149c-.629-.066-1.367-.063-2-.124.7.171,1.282.406,1.976.58A.671.671,0,0,0,34.547-12.149Z" transform="translate(741.135 832.338)" fill="#fff" fill-rule="evenodd"/>
    <path id="Path_51" data-name="Path 51" d="M28.4-11.863c-.656-.161-1.14-.691-2.035-.487h0l2.014.942C28.423-11.579,28.358-11.686,28.4-11.863Zm-2.035-.487-.049-.023-.107.065C26.267-12.324,26.317-12.337,26.367-12.349Z" transform="translate(735.273 832.225)" fill="#fff" fill-rule="evenodd"/>
    <path id="Path_52" data-name="Path 52" d="M10.274-34.653a1,1,0,0,0-.03,1.165c.2.324.515.609.711.934C10.67-33.267,10.56-33.94,10.274-34.653Z" transform="translate(720.353 811.646)" fill="#fff" fill-rule="evenodd"/>
    <path id="Path_53" data-name="Path 53" d="M26.235-12.433l-2-1.081h0c-.028-.054-.053-.11-.08-.169l-.107.065.187.1h0c.028.054.058.1.087.151A1.945,1.945,0,0,0,26.235-12.433Z" transform="translate(733.271 831.035)" fill="#fff" fill-rule="evenodd"/>
    <path id="Path_54" data-name="Path 54" d="M35.987-32.635l-.214.129c.392.648.892,1.232,1.284,1.88C36.665-31.274,36.379-31.987,35.987-32.635Z" transform="translate(744.115 813.512)" fill="#fff" fill-rule="evenodd"/>
    <path id="Path_55" data-name="Path 55" d="M39.245-14.773c-.669.108-1.233.157-1.906.268l1.888.186C39.269-14.491,39.2-14.6,39.245-14.773Z" transform="translate(745.563 830.027)" fill="#fff" fill-rule="evenodd"/>
    <path id="Path_56" data-name="Path 56" d="M23.426-53.053q-.253-.1-.494-.179h0l.387.244Zm-.494-.179c-.355-.228-.718-.469-1.111-.767-.045.174-.152.238-.2.412C22.118-53.466,22.524-53.366,22.932-53.232Z" transform="translate(731.033 793.758)" fill="#fff" fill-rule="evenodd"/>
    <path id="Path_57" data-name="Path 57" d="M24.86-55.213a7.055,7.055,0,0,1-1.349-.517.433.433,0,0,0-.147.24c.41.195.888.494,1.3.687C24.708-54.975,24.818-55.041,24.86-55.213Z" transform="translate(732.642 792.158)" fill="#fff" fill-rule="evenodd"/>
    <path id="Path_58" data-name="Path 58" d="M27.267-11.784c-.716-.452-1.433-.9-2.085-1.249a16.629,16.629,0,0,0,1.978,1.314Z" transform="translate(734.323 831.636)" fill="#fff" fill-rule="evenodd"/>
    <path id="Path_59" data-name="Path 59" d="M15.086-21.518l-.217.131c.261.431.7.908,1.023,1.449C15.565-20.479,15.414-20.977,15.086-21.518Z" transform="translate(724.788 823.79)" fill="#fff" fill-rule="evenodd"/>
    <path id="Path_60" data-name="Path 60" d="M9.83-35.53l-.217.131c.328.541.76,1.015,1.088,1.556Z" transform="translate(719.927 810.835)" fill="#fff" fill-rule="evenodd"/>
    <path id="Path_61" data-name="Path 61" d="M3.375-38.13c0,.051.01.1.014.155h0l.052-.045Zm.014.155A.927.927,0,0,0,3.3-36.709a2.59,2.59,0,0,0,.282.378C3.535-36.84,3.441-37.443,3.389-37.974Z" transform="translate(713.898 808.431)" fill="#fff" fill-rule="evenodd"/>
    <path id="Path_62" data-name="Path 62" d="M24.225-16.477h0c-.178-.207-.371-.409-.57-.612h0Zm-.57-.612L22.55-18.271A15.7,15.7,0,0,0,23.656-17.089Z" transform="translate(731.89 826.792)" fill="#fff" fill-rule="evenodd"/>
    <path id="Path_63" data-name="Path 63" d="M8.642-55.029l-.107.065.457.755.107-.065Z" transform="translate(718.931 792.806)" fill="#fff" fill-rule="evenodd"/>
    <path id="Path_64" data-name="Path 64" d="M17.367-47.507l-.324.2,1.091,1.554C17.915-46.36,17.588-46.9,17.367-47.507Z" transform="translate(726.798 799.761)" fill="#fff" fill-rule="evenodd"/>
    <path id="Path_65" data-name="Path 65" d="M38.1-14.449h0l-1.561-.384a.671.671,0,0,1-.021.456A12.842,12.842,0,0,1,38.1-14.449Z" transform="translate(744.803 829.971)" fill="#fff" fill-rule="evenodd"/>
    <path id="Path_66" data-name="Path 66" d="M14.026-22.673l-.107.065.392.648.107-.065Z" transform="translate(723.909 822.722)" fill="#fff" fill-rule="evenodd"/>
    <path id="Path_67" data-name="Path 67" d="M52.971-37.308a55.066,55.066,0,0,0-18.91-18.248c4.09,3.582,8.545,6.794,12.223,10.918a87.8,87.8,0,0,1,9.631,13.227A39.681,39.681,0,0,0,52.971-37.308Z" transform="translate(742.532 792.318)" fill="#fff" fill-rule="evenodd"/>
    <path id="Path_68" data-name="Path 68" d="M45.88-50.185h0a31.741,31.741,0,0,0-12.972-8.986c-.208-.131-.48,0-.732.049h0A62.151,62.151,0,0,1,45.88-50.185Zm-13.7-8.937c-.059-.031-.12-.06-.179-.091l.067.11A.882.882,0,0,0,32.177-59.122Z" transform="translate(740.625 788.924)" fill="#fff" fill-rule="evenodd"/>
    <path id="Path_69" data-name="Path 69" d="M39.2-54.9a29.4,29.4,0,0,0-11.159-4.769C31.624-58.14,35.38-56.574,39.2-54.9Z" transform="translate(736.969 788.519)" fill="#fff" fill-rule="evenodd"/>
    <path id="Path_70" data-name="Path 70" d="M47.76-37.905A5.907,5.907,0,0,0,46.726-39.2c.788,2.034,1.469,4.133,2.258,6.166A9.048,9.048,0,0,0,47.76-37.905Z" transform="translate(754.242 807.444)" fill="#fff" fill-rule="evenodd"/>
    <path id="Path_71" data-name="Path 71" d="M32.665-58.859c-.041,0-.082,0-.125-.009h0c.063.037.125.075.191.119Zm-.125-.009h0a5.348,5.348,0,0,1-1.07-.743c-.107.065-.149.236-.195.41A10.891,10.891,0,0,0,32.54-58.867Z" transform="translate(739.957 788.57)" fill="#fff" fill-rule="evenodd"/>
  </g>
</svg>
