<svg xmlns="http://www.w3.org/2000/svg" width="103.035" height="133.226" viewBox="0 0 103.035 133.226">
  <g id="Group_270" data-name="Group 270" transform="matrix(0.978, 0.208, -0.208, 0.978, 6.238, 84.438)">
    <path id="Path_519" data-name="Path 519" d="M60.454-75.068c.626.511,1.252,1.02,2.113,1.693a1.959,1.959,0,0,1-1.026-.336A5.924,5.924,0,0,1,60.454-75.068Zm13.87-8.752L72.87-81.748c1.14.378,1.452-1.37,2.537-.61-1.5,1.337-2.968,2.627-4.355,3.9a9.972,9.972,0,0,0-1.01,1.542,1.084,1.084,0,0,0,.263.325,16.455,16.455,0,0,0,2.062-1.435c1.028-.966,1.915-2.03,2.9-3.028.484-.534.909-.559,1.537-.118a6.083,6.083,0,0,1,.593.488c-2.246,1.8-4.411,3.582-6.611,5.414-.351.26-.6.5-.907.287a1.116,1.116,0,0,1-.242-.25.055.055,0,0,0-.017-.018c-.123-.086-.735-.006-.785.157a10.041,10.041,0,0,0-.52,1.744A2.076,2.076,0,0,1,68-73.5c-.251-.246-.467-.538-.717-.783h0a14.55,14.55,0,0,0-.4,1.475c-.071.3-.047.671-.1,1.052l-.849-.6a4.469,4.469,0,0,1-.354.805,1.772,1.772,0,0,1-.622.689,31.386,31.386,0,0,1,8.8-13.15C73.819-84.1,74.1-83.9,74.324-83.82ZM58.908-75.567a7.573,7.573,0,0,1,2.17,2.414,2.126,2.126,0,0,1-1.323-.393,4.773,4.773,0,0,1-.881-.873,2.178,2.178,0,0,0-.459-.5.818.818,0,0,0-.983.05c-.074.054-.2.015-.34-.08a1.255,1.255,0,0,1-.366-.415c.333.023.716.081,1.305.143-.466-.537-.81-.848-1.277-1.387A7.819,7.819,0,0,1,58.908-75.567Zm-3.574-1.446c.145.1.282.219.417.333.155.178.033.649.042.937h0c-.609-.495-1.175-.961-1.833-1.49A1.362,1.362,0,0,1,55.333-77.013ZM70.107-54.87h0c.782.688,1.423,1.278,2.109,1.9-.112.061-.212.2-.324.264a1.156,1.156,0,0,0-.366-.385c-.268-.188-.606-.326-.887-.523A1.184,1.184,0,0,1,70.107-54.87ZM58.45-80.629a.9.9,0,0,1,.306,1.068l-3.6-.485c-.079.014-.146.108-.178.155,1.025.439,1.973.893,3.316,1.484h0a8.1,8.1,0,0,1-1.316.272c-2.7-.065-5.359-.176-8.022-.287-1.786-.058-3.567-.324-5.373-.255a31.176,31.176,0,0,0-4.294.712,1.188,1.188,0,0,0-.01.414,10.686,10.686,0,0,0,2.144.451c3.21-.068,6.358-.248,9.521-.349a3.957,3.957,0,0,1,2.533.629c.1.071.2.15.3.235a1.4,1.4,0,0,0,.2.164,8.72,8.72,0,0,0,1.806.7h0c-.051.172-.132.383-.086.416.856.883,1.793,1.751,2.792,2.732a1.19,1.19,0,0,1-1.115-.144c-.332-.233-.571-.6-.878-.812a1,1,0,0,0-.265-.136c-.112.061-.178.155-.291.217.371.471.744.943,1.163,1.448a1.149,1.149,0,0,1-.927-.25c-.3-.208-.725-.579-1.481-1.229-.814-.641-1.516-1.344-2.3-2.034-.1.141-.212.2-.311.344.546.522,1.139,1.079,1.732,1.636-1.208,1.121.607,1.338.5,2.391-.99-.694-2.06-1.373-3.081-2.02l-.2.282c.579.476,1.111.921,1.657,1.443-.066.095-.085.223-.151.317a32.661,32.661,0,0,1-4.156-.388,39.5,39.5,0,0,1-5.8-1.75c-2.025-.717-4.033-1.564-6.006-2.457-1.611-.709-3.237-1.5-5.05-2.418,1.325-.687,2.409-1.331,3.542-1.944a20.632,20.632,0,0,1,3.046-1.236A14.306,14.306,0,0,1,41.56-82a36.179,36.179,0,0,1,6.67-.592,54.626,54.626,0,0,1,7.3,1.114c.809.147,1.568.468,2.379.615A1.616,1.616,0,0,1,58.45-80.629Zm8.872,57.674a3.449,3.449,0,0,1,1.458,1.729c-1.191-.905-2.322-1.7-3.419-2.538A4.1,4.1,0,0,1,67.322-22.955Zm3.3,20.706c.244.171.436.5.7.688a.72.72,0,0,0,.18.095.174.174,0,0,1,.038.018c.143.1.181.5.264.756l-.341.182c-.512-.57-1.105-1.127-1.653-1.65C70.169-2.425,70.415-2.394,70.623-2.248ZM69.094.21a4.606,4.606,0,0,1,1.175,1.184A21.381,21.381,0,0,1,67.8.176a3.34,3.34,0,0,1-.924-.954A7.314,7.314,0,0,1,69.094.21Zm-.184,7.329-.127-.02a.337.337,0,0,0,.03.026h0C68.845,7.544,68.876,7.541,68.909,7.539ZM42.675,21.391l-.033.047.011.006h0A.517.517,0,0,1,42.675,21.391ZM64.738-63.73c.168.118.332.244.5.38a5.259,5.259,0,0,1-1.084-.059,5.551,5.551,0,0,0,.776.9c1.055.74,2.164,1.339,3.207,2.071.261.183.517.374.768.579,1.064.886,2.563,1.657,2.725,3.528-.5-.283-.833-.515-1.243-.733-.034.048-.066.095-.113.062a5.1,5.1,0,0,0,.744.943c.182.111.361.211.52.322a1.3,1.3,0,0,1,.552,1.555c-2.161-1.727-4.261-3.341-6.363-4.955-.079.014-.146.108-.211.2a4.449,4.449,0,0,0,1.374,1.4c.521.366,1.087.685,1.609,1.051A4.386,4.386,0,0,1,69.918-55l-.2.282c-1.13-.792-2.245-1.506-3.409-2.252a.742.742,0,0,1-.246.251c1.921,1.769,4.266,3.132,6.008,5.058l-.264.377c-1.512-.85-2.977-1.667-4.522-2.471l-.2.284c.485.41.9.915,1.423,1.278.707.5,1.433.864,2.172,1.313.141.1.084.48.14.8-1.315-.429-2.186-1.392-3.35-1.436a1.562,1.562,0,0,0-.249.457c1.378,1.039,2.791,2.03,4.172,3.068l-.165.236c-.82-.434-1.607-.917-2.346-1.365a1.1,1.1,0,0,0-.411-.216c-.6-.142-1.192-.2-1.748-.314A7.506,7.506,0,0,0,67.8-48.478c1.21.78,2.553,1.37,3.763,2.149a2.2,2.2,0,0,1,.719,1.278L66.9-47.493l-.3.424a5.833,5.833,0,0,0,.623.662.821.821,0,0,0,.126.073c1.357.67,2.78,1.247,4.15,2,.284.2.3.981.489,1.609-1.545-.8-2.868-1.521-4.211-2.112-.315-.152-.972-.119-1.1.068a.523.523,0,0,0,.081.693.669.669,0,0,0,.508.072.061.061,0,0,1,.047.014c.064.045.128.178.2.231,1.055.6,2.158,1.234,3.245,1.786a2.913,2.913,0,0,0,.9.213c-.216.411-.4.772-.5.913-1.786-.76-3.429-1.422-5.04-2.131-.052.174-.152.315-.2.491,1.23.65,2.44,1.429,3.749,2.068a2.991,2.991,0,0,1,.53.287c.583.409.6.891.082,1.547-1.545-.8-3.091-1.606-4.81-2.462a1.828,1.828,0,0,0,.83,1.585c.415.291.912.478,1.306.754.035.025.071.05.1.077.518.364,1.169.538,1.768.889.234.164.353.6.57.891l-.359.311q-1.654-.949-3.307-1.9c-.552-.316-1.013-.359-1.348.321,1.2.7,2.393,1.4,3.541,2.063.054.031.1.064.149.1a.992.992,0,0,1,.325,1.431c-1.244-.732-2.426-1.35-3.75-2.069-.277.3-1.107.277-.5,1.121,1.041.52,2.1,1.119,3.217,1.625a3.886,3.886,0,0,1,.416.241c.4.282.446.583.213,1.464a7.083,7.083,0,0,1-1.424-.787,33.8,33.8,0,0,1-2.667-2.295,1.3,1.3,0,0,0-.335-.024c.206.707.333,1.429.552,2.216-.079.014-.32.056-.767.094.673.542,1.125,1,1.611,1.41l-.232.33c-.362-.184-.726-.368-1.135-.586a6.688,6.688,0,0,1-.811.556,2.068,2.068,0,0,0-.385-.553.809.809,0,0,1-.274.09c.124.226.1.561.241.66.922.788,1.831,1.5,2.739,2.2.217.169.435.326.654.48s.437.3.651.453a9.432,9.432,0,0,1,1.22.978c.3.28.168.962.253,1.444-.354.1-.628.192-.9.28a1.921,1.921,0,0,0,.494.7c.58.477.871.963.342,1.717-1.709-1.27-3.4-2.46-5.114-3.729l-.325.263c.423,1,.893,2.034,1.438,3.259l-2.026-1.421-.212.2a4.2,4.2,0,0,0,.9,1.122c1.742,1.222,3.485,2.445,5.293,3.572.8.562.833,1.218.856,2.288-2.158-1.234-4.046-2.348-6.062-3.48a1.352,1.352,0,0,0,.639,1.089c.319.224.7.376,1.013.561,1.3.845,2.727,1.422,4.03,2.267.425.3.565,1.1.823,1.631l-.324.264a9.917,9.917,0,0,0-1.135-.586,13.1,13.1,0,0,0-1.4-.416l-.034.048c.627.509,1.334,1.005,2.243,1.713-.845-.1-1.353-.176-1.9-.2l-.079.014,2.166,1.52a2.063,2.063,0,0,1,.888,2.241l-.283.5c.311.359.589.765.9,1.124-.065.093-.146.109-.26.169-1.021-.647-2.011-1.341-3.065-1.94a.712.712,0,0,0-.426-.008h0l-.036-.036-.033.047.069-.011h0a11.8,11.8,0,0,0,1.4,1.323c.054.042.11.081.166.121.388.272.822.5,1.219.779a2.659,2.659,0,0,1,1.271,2.227c-1.117-.712-2.044-1.293-3.053-1.859a9.327,9.327,0,0,0-1.644-.663c-.02.127-.052.174-.071.3L70.46-5.99c.072.044.14.088.2.133.625.439.824.915.8,2.045L68.777-5.7c-.093-.065-.287.009-.4.071a.815.815,0,0,0-.1.348c.407.321.843.627,1.279.933s.871.611,1.278.932a2.554,2.554,0,0,1,.872.961c-3.115-1.271-5.828-3.315-9.027-4.365-.066.095-.117.269-.216.411a27.808,27.808,0,0,1,2.887,1.393c1.48.9,2.972,1.875,4.465,2.852h0a16.952,16.952,0,0,0-1.737-.728,6.821,6.821,0,0,0-1.428-.37l-.066.095,3.349,2.139c.3.211.675.383,1.013.62a2.674,2.674,0,0,1,.244.192A13.831,13.831,0,0,1,72.244.882l-.311.344c-3.085-1.813-6.124-3.593-9.209-5.405l-.2.282a7.127,7.127,0,0,0,.83.721c1.178.826,2.307,1.619,3.517,2.4h0c-.71-.288-1.39-.623-2.086-.831a3.7,3.7,0,0,0-1.16-.251,2.477,2.477,0,0,0-.119.268L66.708.16l-.185.363c-1.215-.572-2.478-1.176-4.009-1.9A5.407,5.407,0,0,0,63.38-.207C65.522.947,67.7,2.052,69.842,3.2c.491.2.948.454,1.659.743-.023.333-.039.957-.067,1.5-3.167-1.8-6.156-3.546-9.1-5.26L62,.656c2.472,1.383,4.913,2.815,7.352,4.244-.066.095-.086.222-.152.315L63.1,2.2a.981.981,0,0,1-.184.362c1.277.685,2.439,1.431,3.749,2.068,1.216.573,2.544,1.083,3.759,1.654a.839.839,0,0,1,.1.057,3.259,3.259,0,0,1,.586.774,4.417,4.417,0,0,0-.727.333,1.272,1.272,0,0,1,.024.369c.2.213.371.471.573.684-.132.188-.277.3-.376.437-.6-.423-1.173-.89-1.788-1.391h0a6.624,6.624,0,0,1-.893,0,1.539,1.539,0,0,0,.616.8c.321.225.7.37,1.027.56a3.868,3.868,0,0,1,.623.277.589.589,0,0,1,.1.091,1.452,1.452,0,0,1,.207.708c-.24.042-.58.225-.8.139-.678-.334-1.29-.764-1.937-1.146-1.148-.667-2.284-1.252-3.466-1.871a12.92,12.92,0,0,0,1.5,1.473c1.2.7,2.508,1.336,3.7,2.035.189.133.225.58.316.853.014.079-.085.22-.152.315-.746,1.866-.68,1.771-2.4.709-1.54-1.009-3.226-1.912-4.8-2.874-1.007-.568-2.03-1.214-3-1.828-.095-.066-.274.09-.547.179a7.112,7.112,0,0,0,.7.7c2.139,1.36,4.357,2.705,6.528,4.017.515.3,1.079.531,1.535.851.075.052.146.107.213.164.3.277.316.853.512,1.273a3.593,3.593,0,0,1-1.272-.191c-1.371-.751-2.676-1.595-4.047-2.346-1.606-.916-3.259-1.865-4.866-2.782a1.462,1.462,0,0,1-.249-.143c-.158-.111-.3-.242-.457-.352-.177.426.256,1.121.787,1.494a1.858,1.858,0,0,0,.243.143,31.411,31.411,0,0,1,5.651,2.912c.352.247.695.508,1.028.791.056.043.111.084.168.124a17.213,17.213,0,0,0,2.405,1.119,8.144,8.144,0,0,0-.411,1.186c-3.515-1.9-6.84-3.674-10.307-5.544-.018.316-.024.449.416.758.311.218.845.525,1.759,1.049q1.229.654,2.459,1.3c.787.482,1.621,1,2.487,1.464.788.481,1.654.949,2.662,1.516h0c-.933.329-.506,1.823-1.84,1.52-.208.7-.463,1.363-.756,2.282-1.635-1.078-3.08-2.022-4.527-2.965-.052.174-.09.428-.176.65,1.385.831,2.736,1.709,4.373,2.785h0c-.542-.029-.9.074-1.133-.091-1.5-.77-3.009-1.62-4.52-2.47-.293-.183-.585-.379-.875-.582-.58-.407-1.151-.839-1.716-1.236l-.113.062-.095-.066-.24.042a6.462,6.462,0,0,0-.2.985c2.361,1.446,4.754,2.842,7.193,4.273h0c-.453.946-.9.776-1.635.328-1.352-.877-2.79-1.534-4.208-2.318-1.37-.75-2.754-1.582-4.172-2.366-.6-.349-1.231-.651-1.875-1.033l-.2.282a11.85,11.85,0,0,0,1.02.876c.089.062.182.122.279.176,1.654.949,3.42,1.837,5.154,2.771,1.371.751,2.789,1.535,4.239,2.273h0c-.746,1.162-1.114,1.186-2.183.505a19.112,19.112,0,0,0-2.19-1.185l-.232.33c.929.58,1.871,1.241,2.892,1.888h0c-.3.631-.717.622-1.6.074-1.885-1.322-3.722-2.611-5.638-3.886a.9.9,0,0,0-.7,0,11.84,11.84,0,0,0,1.857,1.575c1.3.91,2.726,1.655,4.036,2.575.326.229.644.467.951.722-1.02.55-1.706-.072-2.447-.522a4.083,4.083,0,0,0-1.074-.472l-.1.141c.675.543,1.314,1.133,2.049,1.788-.19.571-.7.7-1.255.386-1.983-1.18-3.9-2.456-5.883-3.636-1.211-.778-2.421-1.558-3.712-2.322l-.066.095c.532.443,1.046,1.014,1.611,1.41,1.837,1.289,3.66,2.5,5.563,3.692a24.158,24.158,0,0,0,2.44,1.429h0a1.081,1.081,0,0,1-1.517.12c-.243-.17-.466-.392-.691-.55-.037-.026-.074-.05-.11-.071-2.253-1.3-4.438-2.692-6.624-4.085-.293-.183-.58-.375-.862-.573-.565-.4-1.116-.815-1.681-1.211a4.078,4.078,0,0,0-1.016-.435h0c-.1.244-.045.367.07.447.133.093.346.129.494.233,1.1.839,2.095,1.822,3.225,2.614,1.542,1.01,3.18,1.879,4.72,2.89.152.09.3.186.453.291A7.258,7.258,0,0,1,53.008,29.2a9.154,9.154,0,0,1-1.381-.337c-.946-.453-1.908-.987-2.9-1.473a.437.437,0,0,0-.32.056l-.034.048c.58.476,1.111.921,1.724,1.351a12.217,12.217,0,0,0,1.242.731.941.941,0,0,1-.071.3,11.805,11.805,0,0,1-1.346-.384c-.457-.249-.962-.533-1.465-.815,0,.493.008.989.013,1.484A3.149,3.149,0,0,1,45.135,30c-2.091-1.326-4.362-2.5-6.5-3.856-2.374-1.526-4.648-3.192-6.989-4.765a8.988,8.988,0,0,1-.317,1.254c.533.441,1.087.859,1.656,1.259,3.6,2.526,7.811,4.308,11.528,6.8h0c-1.443.955-2.629-.159-3.794-.9-1.7-.982-3.314-2.186-4.983-3.216-.141-.1-.381-.057-.589-.061l-.079.014a32.378,32.378,0,0,0,2.6,2.106c1.069.678,2.2,1.264,3.354,1.932.093.065.135.306.211.5l-.2.284c-.866-.468-1.751-.807-2.584-1.322-2.469-1.591-4.983-3.216-7.451-4.806-.4-.26-.8-.53-1.2-.807-.788-.553-1.568-1.132-2.385-1.705a3.58,3.58,0,0,1-.475-.122c.4.424.7.909,1.133,1.288.714.535,1.424,1.052,2.141,1.555s1.446,1,2.192,1.485c1.352.877,2.8,1.615,4.2,2.526.232.138.45.284.669.437.441.309.886.653,1.451,1.049a4.464,4.464,0,0,1-3.431-.875c-.28-.2-.556-.415-.842-.647-.595-.5-1.218-.964-1.855-1.411-1.6-1.119-3.285-2.126-4.866-3.235C26.37,23.8,25.1,22.7,23.818,21.725a23.6,23.6,0,0,0-3.462-2.077,67.514,67.514,0,0,0,7.1,5.611c2.4,1.685,4.789,3.291,7.191,4.976.014.079-.052.174-.07.3a7.507,7.507,0,0,1-2.13-.369c-.138-.086-.271-.175-.4-.267-.809-.568-1.537-1.242-2.279-1.824a4.933,4.933,0,0,0-.4-.31c-.333-.234-.689-.433-1.045-.634-.8-.562-1.6-1.123-2.389-1.6a3.591,3.591,0,0,0-.957-.039c.331.285.674.544,1.021.788.74.519,1.5.972,2.206,1.465A7.818,7.818,0,0,1,30.1,29.5a2.41,2.41,0,0,0-.117.269A4.079,4.079,0,0,1,28.9,29.3c-.975-.613-1.93-1.354-2.938-1.92a6.579,6.579,0,0,0-1.415-.289,2.177,2.177,0,0,1-1.065-.185c-1.454-.972-2.91-1.943-4.342-2.947q-.889-.624-1.767-1.269c-1.7-1.19-3.339-2.553-5.047-3.824-.141-.1-.514.132-.754.174-.02.127-.071.3-.091.429-1.261-1.308-2.589-2.52-3.705-3.935A36.172,36.172,0,0,1,4.9,11.124,22.9,22.9,0,0,1,2.318,2.986,24.359,24.359,0,0,1,2.06-2.958a27.614,27.614,0,0,1,1.612-8.708c.59-1.343.578-2.827,1.042-4.188A20.525,20.525,0,0,1,8.67-22.5c1.377-1.564,2.52-3.291,3.85-4.887,2.04-2.5,4.808-4.148,7.341-5.955.293-.216.6-.353.858-.521,2.42-1.747,4.807-3.446,7.273-5.16,1.608-1.19,3.42-2.168,4.953-3.552a49.475,49.475,0,0,0,4.411-4.987,68.177,68.177,0,0,0,3.981-5.571,27.866,27.866,0,0,1,7.687-8.451c1.349-1.022,3.1-1.411,4.711-2.108a19.287,19.287,0,0,1,6.175-1.288A7.274,7.274,0,0,1,64.738-63.73ZM77.6-85.384a6.635,6.635,0,0,0-1.546-.8c-.792-.273-1.456-.528-2.13.334a23.17,23.17,0,0,1-1.9,1.9,25.667,25.667,0,0,0-2.9,3.028,45.243,45.243,0,0,0-2.506,4.074,5,5,0,0,1-.585-.269,13.938,13.938,0,0,0-2-1.7,17.078,17.078,0,0,0-4.077-2.072c-2.024-.719-4.122-1.137-6.2-1.68a17.976,17.976,0,0,0-3.812-.776,30.4,30.4,0,0,0-6.626.129,68.311,68.311,0,0,0-6.841,1.736,14.051,14.051,0,0,0-5.825,3.294,5.2,5.2,0,0,0,.56.6c1.244.732,2.454,1.511,3.764,2.148A41.934,41.934,0,0,0,41.1-72.624a62.55,62.55,0,0,0,9.348,2.2,17.726,17.726,0,0,0,8.835-.971c1.932-.751,3.758-1.651,5.437-2.441-.8,2.248-1.768,4.524-2.558,6.85a1.115,1.115,0,0,1-1.237.961,44.244,44.244,0,0,0-6.066.733A21.274,21.274,0,0,0,50.8-63.917a10.462,10.462,0,0,0-2.587,1.486c-1.322,1.181-3.062,1.859-4.044,3.559-.7,1.195-2.029,2.091-2.855,3.268-1.651,2.354-3.068,4.874-4.673,7.262A22.871,22.871,0,0,1,29.8-41.69c-2.123,1.323-4.152,2.71-6.132,4.131-2.14,1.45-4.221,3.014-6.363,4.463a23.205,23.205,0,0,0-7.623,7.16c-.1.141-.246.249-.345.39C7.9-23.6,6.448-21.735,5.141-19.77,3.168-16.657,2.348-13.086,1.435-9.58,1.061-7.946,1.068-6.253.789-4.551A25.854,25.854,0,0,0,1.617,5.586c.61,2.537,1.654,4.955,2.505,7.45a3.867,3.867,0,0,0,.653,1.373,63.881,63.881,0,0,0,6.253,6.214c.7.559,1.414,1.089,2.144,1.6,2.19,1.536,4.492,2.913,6.681,4.45a29.228,29.228,0,0,0,9.318,4.148c3.821,1.065,7.677,2.082,11.734,1.908a39.05,39.05,0,0,0,10.959-1.8,37.262,37.262,0,0,0,7.951-4.12A15.579,15.579,0,0,0,62.9,24.618c1.853-2.143,3.553-4.464,5.3-6.754a13.5,13.5,0,0,0,1.7-2.529c.709-1.611,1.149-3.34,1.763-5.018a28.587,28.587,0,0,0,1.419-8.633,42.693,42.693,0,0,0-.756-7.839c-.365-2.786-1.131-5.5-1.528-8.24-.455-3.06-.876-6.166-1.089-9.267a66.811,66.811,0,0,1-.01-7.6,18.047,18.047,0,0,1,.851-3.619c.233-1.031.546-2.078.825-3.077.415-1.394.879-2.757,1.3-4.152a6.442,6.442,0,0,1,.118-.97c.407-.979.907-1.894,1.328-2.793a2.506,2.506,0,0,0,.332-1.173c-.247-3.757-.572-7.5-2.133-10.984a8.55,8.55,0,0,0-1.608-2.816c-1.813-1.624-3.791-3.011-5.893-4.625a20.6,20.6,0,0,0,2.1-3.1,18.229,18.229,0,0,1,4.119-5.472c2.695-2.538,5.435-5.042,8.933-6.523.727-.333.69-.782.464-1.362A9.49,9.49,0,0,0,77.6-85.384Z" transform="translate(0 0)" fill="#fff" fill-rule="evenodd"/>
  </g>
</svg>
