<svg xmlns="http://www.w3.org/2000/svg" width="363.191" height="200.853" viewBox="0 0 363.191 200.853">
  <g id="Group_283" data-name="Group 283" transform="translate(-1372.15 -3064.207)">
    <path id="Icon_awesome-discord" data-name="Icon awesome-discord" d="M52.2,42.715a4.6,4.6,0,1,1-4.586-4.991A4.79,4.79,0,0,1,52.2,42.715Zm-21-4.991a5.009,5.009,0,0,0,0,9.982,4.79,4.79,0,0,0,4.586-4.991A4.761,4.761,0,0,0,31.2,37.725ZM78.686,9.263V89.927c-11.328-10.01-7.7-6.7-20.863-18.93l2.383,8.318H9.218A9.24,9.24,0,0,1,0,70.053V9.263A9.24,9.24,0,0,1,9.218,0H69.469A9.24,9.24,0,0,1,78.686,9.263ZM65.872,51.888A60.213,60.213,0,0,0,59.4,25.674a22.235,22.235,0,0,0-12.635-4.721l-.629.719c7.644,2.338,11.2,5.71,11.2,5.71a38.205,38.205,0,0,0-33.588-1.3c-1.664.764-2.653,1.3-2.653,1.3s3.732-3.552,11.825-5.89l-.45-.54a22.235,22.235,0,0,0-12.635,4.721,60.213,60.213,0,0,0-6.475,26.214s3.777,6.52,13.714,6.834c0,0,1.664-2.023,3.013-3.732-5.71-1.709-7.869-5.306-7.869-5.306.661.463,1.752,1.063,1.844,1.124a32.776,32.776,0,0,0,28.057,1.574,25.73,25.73,0,0,0,5.171-2.653s-2.248,3.687-8.138,5.351c1.349,1.709,2.968,3.642,2.968,3.642C62.05,58.408,65.872,51.888,65.872,51.888Z" transform="translate(1653.424 3064.707)" fill="#fff" stroke="#fff" stroke-width="1"/>
    <path id="Icon_awesome-reddit-square" data-name="Icon awesome-reddit-square" d="M49.741,57.313a1.1,1.1,0,0,1,0,1.616c-4.3,4.3-16.475,4.321-20.8,0a1.1,1.1,0,0,1,0-1.616,1.124,1.124,0,0,1,1.563,0c3.284,3.372,14.227,3.443,17.652,0A1.182,1.182,0,0,1,49.741,57.313ZM33.705,47.864a4.681,4.681,0,1,0-4.654,4.654A4.674,4.674,0,0,0,33.705,47.864Zm15.93-4.707a4.681,4.681,0,1,0,4.707,4.707A4.674,4.674,0,0,0,49.636,43.156ZM78.686,10.681V72.506a8.433,8.433,0,0,1-8.431,8.431H8.431A8.433,8.433,0,0,1,0,72.506V10.681A8.433,8.433,0,0,1,8.431,2.25H70.256A8.433,8.433,0,0,1,78.686,10.681ZM61.175,35.376a6.375,6.375,0,0,0-4.5,1.879,30.476,30.476,0,0,0-16.247-5.023l3.284-14.789L54.167,19.8a4.662,4.662,0,0,0,4.654,4.654,4.707,4.707,0,1,0-4.18-6.8L43.1,15.089a1.1,1.1,0,0,0-1.3.843l-3.6,16.3A30.738,30.738,0,0,0,22.06,37.308a6.248,6.248,0,1,0-7.271,9.924,13.521,13.521,0,0,0-.316,2.933c0,9.924,11.188,17.968,24.923,17.968,13.788,0,24.976-8.044,24.976-17.968A11.311,11.311,0,0,0,64,47.179a6.235,6.235,0,0,0-2.828-11.8Z" transform="translate(1514.537 3062.457)" fill="#fff" stroke="#fff" stroke-width="1"/>
    <g id="Icon_feather-instagram" data-name="Icon feather-instagram" transform="translate(1375.65 3190.367)">
      <path id="Path_609" data-name="Path 609" d="M20.8,3h35.6a17.8,17.8,0,0,1,17.8,17.8v35.6a17.8,17.8,0,0,1-17.8,17.8H20.8A17.8,17.8,0,0,1,3,56.394V20.8A17.8,17.8,0,0,1,20.8,3Z" transform="translate(-3 -3)" fill="none" stroke="#fff" stroke-linecap="round" stroke-linejoin="round" stroke-width="7"/>
      <path id="Path_610" data-name="Path 610" d="M40.388,24.085a14.238,14.238,0,1,1-12-12,14.238,14.238,0,0,1,12,12Z" transform="translate(9.447 9.268)" fill="none" stroke="#fff" stroke-linecap="round" stroke-linejoin="round" stroke-width="7"/>
      <path id="Path_611" data-name="Path 611" d="M26.25,9.75h0" transform="translate(28.924 6.268)" fill="none" stroke="#fff" stroke-linecap="round" stroke-linejoin="round" stroke-width="7"/>
    </g>
    <path id="Icon_awesome-medium" data-name="Icon awesome-medium" d="M0,2.25V80.936H78.686V2.25ZM65.373,20.885l-4.215,4.04a1.238,1.238,0,0,0-.474,1.177V55.838a1.209,1.209,0,0,0,.474,1.177l4.128,4.04v.9H44.56v-.861l4.268-4.145c.422-.422.422-.544.422-1.177V31.722L37.376,61.862h-1.6L21.955,31.722v20.2a2.777,2.777,0,0,0,.773,2.318l5.55,6.727v.9H12.506v-.9l5.55-6.727a2.689,2.689,0,0,0,.72-2.318V28.561a2.005,2.005,0,0,0-.667-1.721l-4.935-5.954v-.9H28.506L40.344,45.984,50.76,20.007H65.373Z" transform="translate(1375.65 3062.457)" fill="#fff" stroke="#fff" stroke-width="1"/>
    <path id="Icon_awesome-youtube" data-name="Icon awesome-youtube" d="M94.968,15.053a12.053,12.053,0,0,0-8.481-8.536C79.007,4.5,49.011,4.5,49.011,4.5s-30,0-37.476,2.017a12.053,12.053,0,0,0-8.481,8.536c-2,7.529-2,23.238-2,23.238s0,15.709,2,23.238a11.873,11.873,0,0,0,8.481,8.4c7.481,2.017,37.476,2.017,37.476,2.017s30,0,37.476-2.017a11.873,11.873,0,0,0,8.481-8.4c2-7.529,2-23.238,2-23.238s0-15.709-2-23.238ZM39.2,52.553V24.028L64.272,38.291,39.2,52.553Z" transform="translate(1504.869 3188.48)" fill="#fff" stroke="#fff" stroke-width="1"/>
    <path id="Icon_awesome-twitter-square" data-name="Icon awesome-twitter-square" d="M66.45,2.25H7.974A7.976,7.976,0,0,0,0,10.224V68.7a7.976,7.976,0,0,0,7.974,7.974H66.45A7.976,7.976,0,0,0,74.424,68.7V10.224A7.976,7.976,0,0,0,66.45,2.25ZM58.326,28.63c.033.465.033.947.033,1.412,0,14.4-10.964,31-31,31a30.856,30.856,0,0,1-16.729-4.884,22.954,22.954,0,0,0,2.625.133,21.844,21.844,0,0,0,13.522-4.651A10.91,10.91,0,0,1,16.6,44.08a11.743,11.743,0,0,0,4.917-.2,10.9,10.9,0,0,1-8.722-10.7v-.133a10.888,10.888,0,0,0,4.917,1.379,10.872,10.872,0,0,1-4.851-9.07,10.759,10.759,0,0,1,1.479-5.5,30.936,30.936,0,0,0,22.46,11.4A10.919,10.919,0,0,1,55.386,21.3,21.35,21.35,0,0,0,62.3,18.68a10.867,10.867,0,0,1-4.784,6,21.682,21.682,0,0,0,6.279-1.694A22.933,22.933,0,0,1,58.326,28.63Z" transform="translate(1660.917 3183.753)" fill="#fff"/>
  </g>
</svg>
